<svg xmlns="http://www.w3.org/2000/svg" viewBox="0 0 88 110" x="0px" y="0px"><title>ecology, care, eco, environment, save, world, hand</title><g data-name="Save World"><path d="M68,29A24,24,0,1,0,44,53,24.0138,24.0138,0,0,0,68,29Zm-2,0a22.0709,22.0709,0,0,1-4.2767,13.0145A25.557,25.557,0,0,0,54.2422,38.03a3.29,3.29,0,0,1-2.7383-2.4883c-.1113-1.01.5977-1.9746,1.9434-2.6475,1.11-.5556,2.2539-1.2763,2.3125-2.4111.0605-1.1807-1.04-1.88-2.2041-2.62-1.82-1.1572-2.9834-2.0342-2.585-3.6221.1787-.7207,1.3623-.9863,3.082-.9863A75.3437,75.3437,0,0,1,64.43,24.5117l1.1416.1865A21.8353,21.8353,0,0,1,66,29ZM39.9741,7.3757A22.8415,22.8415,0,0,1,44,7a21.9709,21.9709,0,0,1,14.4874,5.4645c-.7757.3615-1.4529.7593-2.0772,1.1263-1.9893,1.1719-2.8985,1.711-4.7852.208a7.5028,7.5028,0,0,0-4.875-1.67,18.3811,18.3811,0,0,0-3.82.5234c-2.4785.5235-3.4683.6153-4.0357-.52C38.3929,11.13,38.7664,9.49,39.9741,7.3757Zm-8.3135,39.828a21.9644,21.9644,0,0,1-5.1453-31.5351c.0349-.0456.0712-.09.1065-.1355A6.5053,6.5053,0,0,1,28.01,20.8584a4.5722,4.5722,0,0,0,.7182,3.6406c1.1509,1.4541,3.17,1.6358,5.1231,1.8115,2.624.2364,3.8906.4991,4.1679,1.8858.2857,1.43-.8471,2.2881-2.874,3.6816-2.561,1.7617-6.0684,4.1739-4.082,9.4727A9.26,9.26,0,0,1,31.6606,47.2037ZM44,50.9957c-.5356,0-1.2869-.03-1.95-.0869-.2623-1.21-.3119-2.534.5047-3.0768a18.03,18.03,0,0,0,1.5976-1.2236c1.545-1.2871,2.1827-1.8223,6.4024.2871,1.3684.6813,2.4777,1.2386,3.372,1.728A21.86,21.86,0,0,1,44,50.9957ZM55.93,47.47c-1.0882-.6627-2.53-1.3921-4.4826-2.3644-5.1338-2.5655-6.5367-1.7325-8.5757-.0332a16.0563,16.0563,0,0,1-1.4248,1.0947c-.9231.6135-1.8311,1.8852-1.4667,4.4584a21.8385,21.8385,0,0,1-6.58-2.3547c.6419-1.56.8921-3.9951-.4637-7.6213v-.001c-1.438-3.8339.7774-5.3584,3.3423-7.122,1.9971-1.3741,4.26-2.9307,3.7017-5.7227-.6006-3.0039-3.5664-3.27-5.95-3.4853-1.5318-.1377-3.1162-.28-3.7339-1.0606a2.79,2.79,0,0,1-.3067-2.1172A8.4277,8.4277,0,0,0,27.9274,14a22.04,22.04,0,0,1,9.5-5.9966c-.8665,2.0263-.9783,3.7116-.3221,5.0239,1.3125,2.6231,3.9287,2.07,6.2392,1.5811,2.3672-.502,4.8155-1.0195,7.0323.7539a5.2663,5.2663,0,0,0,3.3046,1.3438,7.5344,7.5344,0,0,0,3.7432-1.3916,17.82,17.82,0,0,1,2.6276-1.3357,22.0031,22.0031,0,0,1,4.9911,8.6066l-.29-.0473C56.1523,21.123,49.9375,20.1016,49.03,23.7568c-.7783,3.1045,1.7676,4.7237,3.4521,5.794a9.4206,9.4206,0,0,1,1.2.8447,4.7824,4.7824,0,0,1-1.13.71c-2.1064,1.0527-3.2412,2.7929-3.0371,4.6552a5.231,5.231,0,0,0,4.2422,4.209A23.0385,23.0385,0,0,1,60.46,43.5745,22.1683,22.1683,0,0,1,55.93,47.47ZM38.707,65.293A.9993.9993,0,0,1,39,66V82a1,1,0,0,1-2,0V66.4141L20.5356,49.9492a3.2428,3.2428,0,0,0-4.5859,4.586L25.707,64.293a1,1,0,1,1-1.414,1.414l-9.7574-9.7578a5.2422,5.2422,0,0,1,0-7.414A5.15,5.15,0,0,1,15,48.1564V32a3,3,0,0,0-6,0V59.3428a2.9816,2.9816,0,0,0,.8784,2.122L20.707,72.293A.9993.9993,0,0,1,21,73v9a1,1,0,0,1-2,0V73.4141L8.4644,62.8789A4.9677,4.9677,0,0,1,7,59.3428V32a5,5,0,0,1,10,0V47.17a5.23,5.23,0,0,1,4.95,1.365ZM81,32V59.3428a4.9685,4.9685,0,0,1-1.4648,3.5361L69,73.4141V82a1,1,0,0,1-2,0V73a.9993.9993,0,0,1,.293-.707L78.1211,61.4648A2.982,2.982,0,0,0,79,59.3428V32a3,3,0,0,0-6,0V48.1559a5.13,5.13,0,0,1,.4648.3793,5.2485,5.2485,0,0,1,0,7.414L63.707,65.707a1,1,0,0,1-1.414-1.414l9.7578-9.7578a3.2428,3.2428,0,1,0-4.586-4.586L51,66.4141V82a1,1,0,0,1-2,0V66a.9993.9993,0,0,1,.293-.707L66.0508,48.5352A5.2278,5.2278,0,0,1,71,47.17V32a5,5,0,0,1,10,0Z"/></g><text x="0" y="103" fill="#000000" font-size="5px" font-weight="bold" font-family="'Helvetica Neue', Helvetica, Arial-Unicode, Arial, Sans-serif">Created by Kmg Design</text><text x="0" y="108" fill="#000000" font-size="5px" font-weight="bold" font-family="'Helvetica Neue', Helvetica, Arial-Unicode, Arial, Sans-serif">from the Noun Project</text></svg>